<svg width="1024" height="286" viewBox="0 0 1024 286" fill="none" xmlns="http://www.w3.org/2000/svg">
<g clip-path="url(#clip0_2004_38)">
<path d="M968.49 181.98C999.136 181.98 1023.98 157.136 1023.98 126.49C1023.98 95.8437 999.136 71 968.49 71C937.844 71 913 95.8437 913 126.49C913 157.136 937.844 181.98 968.49 181.98Z" fill="#FFECE3"/>
<path d="M941.83 146.74C945.53 146.74 948.54 143.71 948.54 140.02V120.36C948.54 116.67 951.56 113.65 955.25 113.65H982.08C985.76 113.65 988.79 116.67 988.79 120.36V140.02C988.79 143.71 991.82 146.74 995.5 146.74C999.18 146.74 1002.21 143.71 1002.21 140.02V120.36C1002.21 109.29 993.16 106.99 982.09 106.99H955.26C944.19 106.99 935.13 109.28 935.13 120.36V140.02C935.13 143.71 938.15 146.74 941.84 146.74H941.83Z" fill="#A48DA9"/>
<path d="M745.94 216.88C777.939 216.88 803.88 190.939 803.88 158.94C803.88 126.941 777.939 101 745.94 101C713.941 101 688 126.941 688 158.94C688 190.939 713.941 216.88 745.94 216.88Z" fill="#EAF3D8"/>
<path d="M712.78 152.91V165.91C712.78 176.98 721.84 179.29 732.9 179.29H759.74C770.8 179.29 779.86 176.98 779.86 165.91V152.91C779.86 141.85 770.8 139.55 759.74 139.55H732.9C721.83 139.55 712.78 141.85 712.78 152.91ZM726.19 152.91C726.19 149.23 729.21 146.2 732.9 146.2H759.74C763.42 146.2 766.45 149.23 766.45 152.91V165.91C766.45 169.6 763.42 172.63 759.74 172.63H732.9C729.21 172.63 726.19 169.6 726.19 165.91V152.91Z" fill="#D49841"/>
<path d="M871.53 286.06C907.721 286.06 937.06 256.721 937.06 220.53C937.06 184.339 907.721 155 871.53 155C835.339 155 806 184.339 806 220.53C806 256.721 835.339 286.06 871.53 286.06Z" fill="#FCFFE3"/>
<path d="M837.6 214.5V227.5C837.6 238.57 846.66 240.88 857.72 240.88H884.56C895.63 240.88 904.69 238.57 904.69 227.5V214.5C904.69 203.44 895.63 201.14 884.56 201.14H857.72C846.66 201.14 837.6 203.44 837.6 214.5ZM851.02 214.5C851.02 210.82 854.04 207.79 857.72 207.79H884.56C888.25 207.79 891.28 210.82 891.28 214.5V227.5C891.28 231.19 888.24 234.22 884.56 234.22H857.72C854.04 234.22 851.02 231.19 851.02 227.5V214.5Z" fill="#549CB6"/>
<path d="M87 227C135.049 227 174 188.049 174 140C174 91.9512 135.049 53 87 53C38.9512 53 0 91.9512 0 140C0 188.049 38.9512 227 87 227Z" fill="#FFECE3"/>
<path d="M131.907 106.738C125.724 106.738 120.664 111.799 120.664 117.965V150.909C120.664 157.092 115.603 162.152 109.42 162.152H64.4621C58.279 162.152 53.2185 157.108 53.2185 150.909V117.965C53.2185 111.782 48.158 106.738 41.9748 106.738C35.7917 106.738 30.7312 111.799 30.7312 117.965V150.909C30.7312 169.458 45.9126 173.329 64.4621 173.329H109.42C127.969 173.329 143.134 169.475 143.134 150.909V117.965C143.134 111.782 138.074 106.738 131.907 106.738Z" fill="#C495B9"/>
<path d="M516.3 231.6C547.394 231.6 572.6 206.394 572.6 175.3C572.6 144.206 547.394 119 516.3 119C485.206 119 460 144.206 460 175.3C460 206.394 485.206 231.6 516.3 231.6Z" fill="#FFECE3"/>
<path d="M523.92 195.7V194.52C523.92 198.22 520.9 201.23 517.21 201.23C513.52 201.23 510.51 198.21 510.51 194.52V156.01C510.51 152.31 513.52 149.29 517.21 149.29C520.9 149.29 523.92 152.31 523.92 156.01V195.7Z" fill="#C3B57E"/>
<path d="M626.87 171.74C653.86 171.74 675.74 149.86 675.74 122.87C675.74 95.8798 653.86 74 626.87 74C599.88 74 578 95.8798 578 122.87C578 149.86 599.88 171.74 626.87 171.74Z" fill="#E7F4F8"/>
<path d="M633.83 143.56V142.38C633.83 146.07 630.81 149.09 627.12 149.09C623.43 149.09 620.41 146.07 620.41 142.38V103.87C620.41 100.17 623.43 97.1504 627.12 97.1504C630.81 97.1504 633.83 100.17 633.83 103.87V143.56Z" fill="#99AED0"/>
<path d="M293.76 103.52C322.346 103.52 345.52 80.3463 345.52 51.76C345.52 23.1737 322.346 0 293.76 0C265.174 0 242 23.1737 242 51.76C242 80.3463 265.174 103.52 293.76 103.52Z" fill="#EAF3D8"/>
<path d="M307.18 38.0401H280.34C277.99 38.0401 275.74 38.1601 273.63 38.4201V32.5201C273.63 28.8301 270.61 25.8101 266.92 25.8101C263.23 25.8101 260.21 28.8301 260.21 32.5201V64.3601V64.4001C260.21 75.4701 269.27 77.7701 280.34 77.7701H307.17C318.23 77.7701 327.3 75.4801 327.3 64.4001V51.4101C327.3 40.3401 318.25 38.0301 307.18 38.0301V38.0401ZM313.89 64.4101C313.89 68.1001 310.87 71.1201 307.18 71.1201H280.35C276.66 71.1201 273.64 68.1001 273.64 64.4101V51.4201C273.64 47.7201 276.66 44.7101 280.35 44.7101H307.19C310.88 44.7101 313.9 47.7301 313.9 51.4201V64.4101H313.89Z" fill="#F6BD66"/>
<path d="M388.25 200.5C422.63 200.5 450.5 172.63 450.5 138.25C450.5 103.87 422.63 76 388.25 76C353.87 76 326 103.87 326 138.25C326 172.63 353.87 200.5 388.25 200.5Z" fill="#FCFFE3"/>
<path d="M421.09 132.39C421.09 121.33 412.03 119.02 400.96 119.02H374.12C370.44 119.02 367.41 120.53 367.41 122.37C367.41 124.21 370.43 125.72 374.12 125.72H400.96C404.65 125.73 407.67 128.7 407.67 132.38V132.4C405.56 132.14 403.31 132.02 400.96 132.02H374.12C363.05 132.02 354 134.32 354 145.38C354 156.44 363.06 158.76 374.12 158.76H400.96C411.76 158.76 420.67 156.54 421.1 146.15C421.12 145.91 421.09 132.38 421.09 132.38V132.39ZM400.97 152.1H374.13C370.45 152.1 367.42 149.08 367.42 145.38C367.42 141.68 370.44 138.68 374.13 138.68H400.97C404.66 138.68 407.68 141.7 407.68 145.38C407.68 149.06 404.66 152.1 400.97 152.1Z" fill="#C78322"/>
<path d="M254.968 134H253.46C258.154 134 262 137.832 262 142.492C262 147.151 258.154 151 253.46 151H204.523C199.83 151 196 147.168 196 142.492C196 137.815 199.83 134 204.523 134H254.968Z" fill="#E7F4F8"/>
</g>
<defs>
<clipPath id="clip0_2004_38">
<rect width="1024" height="286" fill="white"/>
</clipPath>
</defs>
</svg>
